<svg xmlns="http://www.w3.org/2000/svg" height="16" width="16" viewBox="0 0 24 24"><title>align</title><g fill="#4c87c8" class="nc-icon-wrapper"><circle data-color="color-2" cx="12" cy="12" r="4"></circle> <polygon fill="#B4B4B4" points="1,8 8,8 8,1 5.207,3.793 1.707,0.293 0.293,1.707 3.793,5.207 "></polygon> <polygon fill="#B4B4B4" points="20.207,5.207 23.707,1.707 22.293,0.293 18.793,3.793 16,1 16,8 23,8 "></polygon> <polygon fill="#B4B4B4" points="3.793,18.793 0.293,22.293 1.707,23.707 5.207,20.207 8,23 8,16 1,16 "></polygon> <polygon fill="#B4B4B4" points="23,16 16,16 16,23 18.793,20.207 22.293,23.707 23.707,22.293 20.207,18.793 "></polygon></g></svg>