<?xml version="1.0" encoding="UTF-8"?>
<svg width="300px" height="300px" viewBox="0 0 300 300" version="1.1" xmlns="http://www.w3.org/2000/svg" xmlns:xlink="http://www.w3.org/1999/xlink">
    <title>bb</title>
    <g id="bb" stroke="none" stroke-width="1" fill="none" fill-rule="evenodd">
        <path d="M150,0 C232.842712,0 300,67.1572875 300,150 C300,232.842712 232.842712,300 150,300 C67.1572875,300 0,232.842712 0,150 C0,67.1572875 67.1572875,0 150,0 Z M88.5444568,63.8525391 L32.9492188,63.8525391 L32.9492188,236.352539 L89.1396949,236.352539 C126.044457,236.352539 147.949219,218.421146 147.949219,188.176863 C147.949219,165.105138 132.830171,148.249628 109.734933,145.978319 L109.734933,144.185179 C126.996838,141.196614 139.258743,125.536531 139.258743,106.529254 C139.258743,79.7517075 120.211124,63.8525391 88.5444568,63.8525391 Z M268.024148,63.8525391 L212.42891,63.8525391 C180.762243,63.8525391 161.714624,79.7517075 161.714624,106.529254 C161.714624,125.536531 173.976529,141.196614 191.238434,144.185179 L191.238434,144.185179 L191.238434,145.978319 C168.143196,148.249628 153.024148,165.105138 153.024148,188.176863 C153.024148,218.421146 174.92891,236.352539 211.833672,236.352539 L211.833672,236.352539 L268.024148,236.352539 L268.024148,63.8525391 Z M83.9015997,155.900356 C111.758743,155.900356 126.163504,166.420107 126.163504,186.742352 C126.163504,207.303683 111.87779,218.062518 84.6158854,218.062518 L53.7825521,218.062518 L53.7825521,155.900356 L83.9015997,155.900356 Z M247.190815,155.900356 L247.190815,218.062518 L216.357481,218.062518 C189.095577,218.062518 174.809862,207.303683 174.809862,186.742352 C174.809862,166.420107 189.214624,155.900356 217.071767,155.900356 L217.071767,155.900356 L247.190815,155.900356 Z M83.7825521,82.0230172 C105.687314,82.0230172 118.068266,92.1841399 118.068266,110.235075 C118.068266,128.405554 104.973028,138.327591 80.5682664,138.327591 L53.7825521,138.327591 L53.7825521,82.0230172 L83.7825521,82.0230172 Z M247.190815,82.0230172 L247.190815,138.327591 L220.4051,138.327591 C196.000338,138.327591 182.9051,128.405554 182.9051,110.235075 C182.9051,92.1841399 195.286053,82.0230172 217.190815,82.0230172 L217.190815,82.0230172 L247.190815,82.0230172 Z" id="Combined-Shape" fill="#FFFFFF"></path>
    </g>
</svg>