<svg width="16" height="16" xmlns="http://www.w3.org/2000/svg" viewBox="0 0 300 300"><title>circuit search</title><g class="nc-icon-wrapper"><g id="circuit-search" stroke="none" stroke-width="1" fill="none" fill-rule="evenodd"><g id="circuit" transform="translate(140)" fill="#B4B4B4" fill-rule="nonzero"><path d="M160 60V40h-20V30c0-5.523-4.477-10-10-10h-10V0h-20v20H60V0H40v20H30c-5.523 0-10 4.477-10 10v10H0v20h20v40H0v20h20v10c0 5.523 4.477 10 10 10h10v20h20v-20h40v20h20v-20h10c5.523 0 10-4.477 10-10v-10h20v-20h-20V60h20zm-40 60H40V40h80v80z" id="Shape"></path><path id="Rectangle" d="M68 64h29v32H68z"></path></g><g id="zoom" transform="translate(1 100)" fill="#4C87C8" fill-rule="nonzero"><path d="M195.328 171.796l-42.27-42.27c23.653-35.738 16.396-83.581-16.792-110.696C103.08-8.285 54.75-5.858 24.446 24.445-5.859 54.75-8.286 103.08 18.83 136.266c27.115 33.188 74.958 40.445 110.695 16.791l42.271 42.271c6.53 6.307 16.91 6.217 23.33-.202 6.42-6.42 6.51-16.8.202-23.33zM33.783 83.71c0-27.574 22.353-49.927 49.927-49.927 27.573 0 49.926 22.353 49.926 49.927 0 27.573-22.353 49.926-49.926 49.926-27.574 0-49.927-22.353-49.927-49.926z" id="Shape"></path></g></g></g></svg>