<svg width="16" height="16" xmlns="http://www.w3.org/2000/svg" viewBox="0 0 300 300"><title>color</title><g class="nc-icon-wrapper"><g id="color" stroke="none" stroke-width="1" fill="none" fill-rule="evenodd"><path d="M260.753 62.236c-67.533-31.932-123.81 33.81-150.073 0-9.38-13.149 13.131-37.567 0-54.472-9.38-11.27-31.891-9.392-45.023 0C26.263 35.939 0 81.019 0 131.734 0 214.38 67.533 282 150.074 282c69.41 0 127.563-46.958 144.446-110.821 7.504-20.662 15.007-84.525-33.767-108.943zm-204.475 78.89c-11.256 0-18.76-7.514-18.76-18.784s7.504-18.783 18.76-18.783c11.255 0 18.759 7.513 18.759 18.783 0 11.27-7.504 18.783-18.76 18.783zm37.518 75.133c-11.255 0-18.759-7.514-18.759-18.784s7.504-18.783 18.76-18.783c11.255 0 18.758 7.513 18.758 18.783 0 11.27-7.503 18.784-18.759 18.784zm75.037 37.566c-11.255 0-18.76-7.513-18.76-18.783 0-11.27 7.505-18.783 18.76-18.783 11.256 0 18.76 7.513 18.76 18.783 0 11.27-7.504 18.783-18.76 18.783zm56.278-75.133c-20.635 0-37.519-16.905-37.519-37.567 0-20.661 16.884-37.566 37.519-37.566 20.635 0 37.518 16.905 37.518 37.566 0 20.662-16.883 37.567-37.518 37.567z" transform="translate(0 9)" fill="#B4B4B4" fill-rule="nonzero" id="Shape"></path><circle id="Oval" fill="#4C87C8" cx="53.5" cy="130.5" r="22.5"></circle><circle id="Oval-Copy" fill="#4C87C8" cx="92.5" cy="206.5" r="22.5"></circle><circle id="Oval-Copy-2" fill="#4C87C8" cx="172.5" cy="245.5" r="22.5"></circle></g></g></svg>