<svg xmlns="http://www.w3.org/2000/svg" height="16" width="16" viewBox="0 0 16 16"><title>exit</title><g fill="#4c87c8" class="nc-icon-wrapper"><path fill="#B4B4B4" d="M3.4,2H8v2h2V1c0-0.6-0.4-1-1-1H1C0.4,0,0,0.4,0,1v9c0,0.3,0.1,0.5,0.3,0.7l5,5C5.5,15.9,5.7,16,6,16 c0.1,0,0.3,0,0.4-0.1C6.8,15.8,7,15.4,7,15V6c0-0.3-0.1-0.5-0.3-0.7L3.4,2z M5,12.6l-3-3V3.4l3,3V12.6z"></path> <path data-color="color-2" d="M15.7,7.3L12,3.6L10.6,5l2,2H8v2h4.6l-2,2l1.4,1.4l3.7-3.7C16.1,8.3,16.1,7.7,15.7,7.3z"></path></g></svg>