<svg xmlns="http://www.w3.org/2000/svg" height="16" width="16" viewBox="0 0 24 24"><title>grid</title><g fill="#B4B4B4" class="nc-icon-wrapper"><rect x="1" y="1" width="4" height="4" fill="#B4B4B4"></rect> <rect x="7" y="1" width="4" height="4" fill="#B4B4B4"></rect> <rect x="13" y="1" width="4" height="4" fill="#B4B4B4"></rect> <rect x="19" y="1" width="4" height="4" fill="#B4B4B4"></rect> <rect x="1" y="7" width="4" height="4" fill="#B4B4B4"></rect> <rect x="7" y="7" width="4" height="4" fill="#B4B4B4"></rect> <rect x="13" y="7" width="4" height="4" fill="#B4B4B4"></rect> <rect x="19" y="7" width="4" height="4" fill="#B4B4B4"></rect> <rect x="1" y="13" width="4" height="4" fill="#B4B4B4"></rect> <rect x="7" y="13" width="4" height="4" fill="#B4B4B4"></rect> <rect x="13" y="13" width="4" height="4" fill="#B4B4B4"></rect> <rect x="19" y="13" width="4" height="4" fill="#B4B4B4"></rect> <rect x="1" y="19" width="4" height="4" fill="#B4B4B4"></rect> <rect x="7" y="19" width="4" height="4" fill="#B4B4B4"></rect> <rect x="13" y="19" width="4" height="4" fill="#B4B4B4"></rect> <rect x="19" y="19" width="4" height="4" fill="#B4B4B4"></rect></g></svg>