<svg xmlns="http://www.w3.org/2000/svg" height="16" width="16" viewBox="0 0 16 16"><title>open image</title><g fill="#4c87c8" class="nc-icon-wrapper"><circle cx="6" cy="5" r="1" fill="#B4B4B4"></circle> <polygon points="16 12 14 12 14 10 12 10 12 12 10 12 10 14 12 14 12 16 14 16 14 14 16 14 16 12" data-color="color-2"></polygon> <path d="M8,14H2V2H14V8h2V1a1,1,0,0,0-1-1H1A1,1,0,0,0,0,1V15a1,1,0,0,0,1,1H8Z" fill="#B4B4B4"></path> <path d="M11.628,9.257,10,6,7,10,5,8,3,12H9.141A3.987,3.987,0,0,1,11.628,9.257Z" fill="#B4B4B4"></path></g></svg>