<svg width="16" height="16" xmlns="http://www.w3.org/2000/svg" viewBox="0 0 300 300"><title>resistor</title><g class="nc-icon-wrapper"><g id="resistor" stroke="none" stroke-width="1" fill="none" fill-rule="evenodd"><g id="resistor-svgrepo-com" transform="translate(5)" fill-rule="nonzero"><path d="M240.678 69.829L295 15.222 279.835 0l-54.3 54.606-14.82-14.92c-6.767-6.801-17.807-6.801-24.616 0l-43.067 43.27a5.875 5.875 0 0 0-1.525 5.528l1.912 7.752-42.53 42.73-7.71-1.921c-1.977-.475-4.06.086-5.5 1.533l-45.794 46.099c-6.787 6.801-6.787 17.9 0 24.723l16.54 16.647L0 284.777 15.143 300l58.424-58.73 16.54 16.625c6.787 6.802 17.828 6.802 24.615 0l45.795-46.055a5.748 5.748 0 0 0 1.696-3.822l.495-9.5 41.455-41.695 6.745 1.015a5.737 5.737 0 0 0 4.94-1.641l43.066-43.27c6.766-6.824 6.766-17.922 0-24.745l-18.236-18.353zm-134.65 180.268c-2.266 2.275-5.922 2.275-8.167 0l-47.994-48.648c-2.245-2.254-2.245-5.98 0-8.278l15.927-16.122 56.14 56.904-15.906 16.144zm44.997-44.685l-13.898 13.932-56.494-56.636 13.145-13.2 7.723 1.92c1.183.302 2.388.172 3.507-.26l46.425 46.522-.408 7.722zm12.14-24.428l-44.182-44.173 19.756-19.762 44.161 44.152-19.735 19.783zm46.221-35.401l-6.725-1.018a5.638 5.638 0 0 0-4.926 1.646l-.364.346-43.95-44.443.365-.346c1.413-1.452 2.013-3.574 1.499-5.567l-1.885-7.753 10.602-10.743 56.265 56.875-10.88 11.003zm41.65-41.294L235.307 120l-56.341-56.383 15.705-15.69c2.253-2.274 5.943-2.253 8.196 0l48.167 48.163c2.231 2.275 2.253 5.946 0 8.2z" id="Shape" fill="#B4B4B4"></path><path id="Rectangle" fill="#4C87C8" transform="rotate(45 150.454 150.711)" d="M117.954 134.211h65v33h-65z"></path></g></g></g></svg>